{
    "accessors": {
        "accessor_buffer_Untitled_0": {
            "bufferView": "bufferView_buffer_Untitled_0",
            "byteOffset": 0,
            "byteStride": 32,
            "componentType": 5126,
            "count": 2332,
            "max": [
                131.3310546875,
                39.806846618652344,
                65.81458282470703
            ],
            "min": [
                -60.65530014038086,
                -39.273284912109375,
                -110.80209350585938
            ],
            "type": "VEC3"
        },
        "accessor_buffer_Untitled_1": {
            "bufferView": "bufferView_buffer_Untitled_0",
            "byteOffset": 12,
            "byteStride": 32,
            "componentType": 5126,
            "count": 2332,
            "max": [
                0.9999688267707825,
                0.9998191595077515,
                0.9999433159828186
            ],
            "min": [
                -0.9999687671661377,
                -0.9998000264167786,
                -0.9999881386756897
            ],
            "type": "VEC3"
        },
        "accessor_buffer_Untitled_2": {
            "bufferView": "bufferView_buffer_Untitled_0",
            "byteOffset": 24,
            "byteStride": 32,
            "componentType": 5126,
            "count": 2332,
            "max": [
                1.0,
                1.0
            ],
            "min": [
                0.0,
                0.0
            ],
            "type": "VEC2"
        },
        "accessor_buffer_Untitled_3": {
            "bufferView": "bufferView_buffer_Untitled_1",
            "byteOffset": 0,
            "byteStride": 2,
            "componentType": 5123,
            "count": 12168,
            "max": [
                2331
            ],
            "min": [
                0
            ],
            "type": "SCALAR"
        }
    },
    "asset": {
        "profile": {
            "api": "WebGL",
            "version": "1.0.3"
        },
        "version": "1.0"
    },
    "bufferViews": {
        "bufferView_buffer_Untitled_0": {
            "buffer": "buffer_combined",
            "byteLength": 74624,
            "byteOffset": 0,
            "target": 34962
        },
        "bufferView_buffer_Untitled_1": {
            "buffer": "buffer_combined",
            "byteLength": 24336,
            "byteOffset": 74624,
            "target": 34963
        }
    },
    "buffers": {
        "buffer_combined": {
            "byteLength": 98960,
            "type": "arraybuffer",
            "uri": "buffer_combined.bin"
        }
    },
    "cameras": {
        "camera_Camera": {
            "name": "Camera",
            "perspective": {
                "aspectRatio": 1.703595982340029,
                "yfov": 0.5033799409866333,
                "zfar": 100.0,
                "znear": 0.10000000149011612
            },
            "type": "perspective"
        }
    },
    "extensions": {
        "KHR_materials_common": {
            "lights": {
                "light_Lamp": {
                    "name": "Lamp",
                    "point": {
                        "color": [
                            1.0,
                            1.0,
                            1.0
                        ],
                        "constantAttenuation": 1,
                        "linearAttenuation": 0,
                        "quadraticAttenuation": 0.03333335240683057
                    },
                    "type": "point"
                }
            }
        }
    },
    "extensionsUsed": [
        "KHR_materials_common"
    ],
    "materials": {
        "material_golden": {
            "extensions": {
                "KHR_materials_common": {
                    "technique": "PHONG",
                    "values": {
                        "ambient": [
                            1.0,
                            1.0,
                            1.0,
                            1.0
                        ],
                        "diffuse": [
                            0.6588236093521118,
                            0.4172549247741699,
                            0.1066666767001152,
                            1.0
                        ],
                        "doubleSided": false,
                        "emission": [
                            0.0,
                            0.0,
                            0.0,
                            1.0
                        ],
                        "shininess": 14,
                        "specular": [
                            0.5882353186607361,
                            0.5529412031173706,
                            0.35686275362968445,
                            1.0
                        ],
                        "transparency": 1.0,
                        "transparent": false
                    }
                }
            },
            "name": "golden"
        }
    },
    "meshes": {
        "mesh_Untitled": {
            "name": "Untitled",
            "primitives": [
                {
                    "attributes": {
                        "NORMAL": "accessor_buffer_Untitled_1",
                        "POSITION": "accessor_buffer_Untitled_0",
                        "TEXCOORD_0": "accessor_buffer_Untitled_2"
                    },
                    "indices": "accessor_buffer_Untitled_3",
                    "material": "material_golden",
                    "mode": 4
                }
            ]
        }
    },
    "nodes": {
        "node_Camera": {
            "camera": "camera_Camera",
            "children": [],
            "matrix": [
                0.6858805418014526,
                0.7276337742805481,
                -0.010816780850291252,
                0.0,
                -0.31737011671066284,
                0.31246861815452576,
                0.8953432440757751,
                0.0,
                0.6548618674278259,
                -0.6106656193733215,
                0.4452453553676605,
                0.0,
                7.481131553649902,
                -6.5076398849487305,
                5.34366512298584,
                1.0
            ],
            "name": "Camera"
        },
        "node_Lamp": {
            "children": [],
            "extensions": {
                "KHR_materials_common": {
                    "light": "light_Lamp"
                }
            },
            "matrix": [
                -0.29086464643478394,
                0.9551711678504944,
                -0.05518905818462372,
                0.0,
                -0.7711008191108704,
                -0.1998833566904068,
                0.6045247316360474,
                0.0,
                0.5663931965827942,
                0.21839119493961334,
                0.7946722507476807,
                0.0,
                4.076245307922363,
                1.0054539442062378,
                5.903861999511719,
                1.0
            ],
            "name": "Lamp"
        },
        "node_dog_01": {
            "children": [],
            "matrix": [
                0.008134651929140091,
                0.005324211902916431,
                0.0016825883649289608,
                0.0,
                -0.005411041900515556,
                0.008250372484326363,
                5.361737930797972e-05,
                0.0,
                -0.0013780262088403106,
                -0.0009669654536992311,
                0.00972198136150837,
                0.0,
                0.22687438130378723,
                -0.6424382328987122,
                0.9723474383354187,
                1.0
            ],
            "meshes": [
                "mesh_Untitled"
            ],
            "name": "dog_01"
        }
    },
    "samplers": {
        "sampler_default": {}
    },
    "scene": "scene_Scene",
    "scenes": {
        "scene_Scene": {
            "extras": {
                "active_camera": "camera_Camera",
                "background_color": [
                    0.05087608844041824,
                    0.05087608844041824,
                    0.05087608844041824
                ],
                "frames_per_second": 30
            },
            "name": "Scene",
            "nodes": [
                "node_dog_01",
                "node_Lamp",
                "node_Camera"
            ]
        }
    }
}
